# xmcd
#
# Track frame offsets: 
#        150
#        22658
#        33244
#        51351
#        63171
#        85953
#        97045
#        113867
#        127311
#        143672
#        174629
#        190810
#        208319
#        223409
#        240170
#        264876
#        289731
#        307646
#        323260
#
# Disc length: 4788 seconds
#
# Revision: 0
# Processed by: cddbd v1.5.2PL0 Copyright (c) Steve Scherf et al.
# Submitted via: ExactAudioCopy v0.95b3
#
DISCID=0812b213
DTITLE=The Guess Who  - Rockin' -  Flavours  
DYEAR=1900
DGENRE=
TTITLE0=Heartbroken Bopper
TTITLE1=Get You Ribbons On
TTITLE2=Smoke Big Factory
TTITLE3=Arrividerci Girl
TTITLE4=Guns Guns Guns
TTITLE5=Running Bear
TTITLE6=Back To The City
TTITLE7=Nashville Sneakers
TTITLE8=Herbert's A Loser
TTITLE9=Hi Rockers-sea Of Love,heaven Only Moved Once
TTITLE10=Dancin Fool
TTITLE11=Ho Down Time
TTITLE12=Nobody Knows His  Name
TTITLE13=Diggin' Yourself
TTITLE14=Seems Like I Can't Live Without You
TTITLE15=Dirty
TTITLE16=Eye
TTITLE17=Loves Me Like A Brother
TTITLE18=Long Gone
EXTD=
EXTT0=
EXTT1=
EXTT2=
EXTT3=
EXTT4=
EXTT5=
EXTT6=
EXTT7=
EXTT8=
EXTT9=
EXTT10=
EXTT11=
EXTT12=
EXTT13=
EXTT14=
EXTT15=
EXTT16=
EXTT17=
EXTT18=
PLAYORDER=
